<?xml version="1.0" encoding="UTF-8" standalone="no"?>
<!DOCTYPE svg PUBLIC "-//W3C//DTD SVG 1.1//EN" "http://www.w3.org/Graphics/SVG/1.1/DTD/svg11.dtd">
<svg class="railroad-diagram" width="609" height="94" viewBox="0 0 609 94" id="expressionFunctionCall" xmlns="http://www.w3.org/2000/svg" xmlns:xlink="http://www.w3.org/1999/xlink"><g transform="translate(.5 .5)"><g><path d="M20 37v20m0 -10h20"></path></g><g><path d="M40 47h0"></path><path d="M569 47h0"></path><path d="M40 47h20"></path><g><path d="M60 47h0"></path><g><path d="M60 47h10"></path><path d="M539 47h10"></path><g class="terminal "><path d="M70 47h0"></path><path d="M141 47h0"></path><rect x="70" y="36" width="71" height="22"></rect><text x="105.5" y="51">LPAREN</text></g><path d="M141 47h10"></path><path d="M151 47h10"></path><g class="terminal "><path d="M161 47h0"></path><path d="M198 47h0"></path><rect x="161" y="36" width="37" height="22"></rect><text x="179.5" y="51">ID</text></g><path d="M198 47h10"></path><g><path d="M208 47h0"></path><path d="M458 47h0"></path><path d="M208 47a10 10 0 0 0 10 -10v-7a10 10 0 0 1 10 -10"></path><g><path d="M228 20h210"></path></g><path d="M438 20a10 10 0 0 1 10 10v7a10 10 0 0 0 10 10"></path><path d="M208 47h20"></path><g><path d="M228 47h0"></path><path d="M438 47h0"></path><path d="M228 47h10"></path><g class="non-terminal "><path d="M238 47h0"></path><path d="M428 47h0"></path><rect x="238" y="36" width="190" height="22" rx="10" ry="10"></rect><text x="333" y="51">functionCallArgument</text></g><path d="M428 47h10"></path><path d="M238 47a10 10 0 0 0 -10 10v7a10 10 0 0 0 10 10"></path><g><path d="M238 74h190"></path></g><path d="M428 74a10 10 0 0 0 10 -10v-7a10 10 0 0 0 -10 -10"></path></g><path d="M438 47h20"></path></g><path d="M458 47h10"></path><g class="terminal "><path d="M468 47h0"></path><path d="M539 47h0"></path><rect x="468" y="36" width="71" height="22"></rect><text x="503.5" y="51">RPAREN</text></g></g><path d="M549 47h0"></path></g><path d="M549 47h20"></path></g><path d="M 569 47 h 20 m 0 -10 v 20"></path></g><defs><style type="text/css"><![CDATA[
svg.railroad-diagram path { stroke-width: 2; stroke: darkgray; fill: rgba(0, 0, 0, 0);}/* All text except comments. */svg.railroad-diagram text { font: bold 12px Hack, "Source Code Pro", monospace; text-anchor: middle; fill: #404040;}/* Comment text */svg.railroad-diagram text.comment { font: italic 10px Hack, "Source Code Pro", monospace; fill: #404040;}/* The terminal boxes. */svg.railroad-diagram g.terminal rect { stroke-width: 2; stroke: #404040; fill: rgba(200, 200, 200, 1);}svg.railroad-diagram g.non-terminal rect { /* The non-terminal boxes. */ stroke-width: 2; stroke: #404040; fill: rgba(255, 255, 255, 1);}/* Multiple choice text, not working atm. */svg.railroad-diagram text.diagram-text { font-size: 12px Hack, "Source Code Pro", monospace; fill: red;}/* Multiple choice text, not working atm. */svg.railroad-diagram path.diagram-text { stroke-width: 1; stroke: red; fill: red; cursor: help;}
 ]]>
</style></defs></svg>