<?xml version="1.0" encoding="UTF-8" standalone="no"?>
<!DOCTYPE svg PUBLIC "-//W3C//DTD SVG 1.1//EN" "http://www.w3.org/Graphics/SVG/1.1/DTD/svg11.dtd">
<svg class="railroad-diagram" width="995.5" height="78" viewBox="0 0 995.5 78" id="funcDef" xmlns="http://www.w3.org/2000/svg" xmlns:xlink="http://www.w3.org/1999/xlink"><g transform="translate(.5 .5)"><g><path d="M20 37v20m0 -10h20"></path></g><g><path d="M40 47h0"></path><path d="M955.5 47h0"></path><path d="M40 47h20"></path><g><path d="M60 47h0"></path><g><path d="M60 47h10"></path><path d="M925.5 47h10"></path><g class="terminal "><path d="M70 47h0"></path><path d="M141 47h0"></path><rect x="70" y="36" width="71" height="22"></rect><text x="105.5" y="51">LPAREN</text></g><path d="M141 47h10"></path><path d="M151 47h10"></path><g class="terminal "><path d="M161 47h0"></path><path d="M266 47h0"></path><rect x="161" y="36" width="105" height="22"></rect><text x="213.5" y="51">KEYWORD_FN</text></g><path d="M266 47h10"></path><path d="M276 47h10"></path><g class="terminal "><path d="M286 47h0"></path><path d="M323 47h0"></path><rect x="286" y="36" width="37" height="22"></rect><text x="304.5" y="51">ID</text></g><path d="M323 47h10"></path><path d="M333 47h10"></path><g class="terminal "><path d="M343 47h0"></path><path d="M414 47h0"></path><rect x="343" y="36" width="71" height="22"></rect><text x="378.5" y="51">LPAREN</text></g><path d="M414 47h10"></path><g><path d="M424 47h0"></path><path d="M594.5 47h0"></path><path d="M424 47a10 10 0 0 0 10 -10v-7a10 10 0 0 1 10 -10"></path><g><path d="M444 20h130.5"></path></g><path d="M574.5 20a10 10 0 0 1 10 10v7a10 10 0 0 0 10 10"></path><path d="M424 47h20"></path><g class="non-terminal "><path d="M444 47h0"></path><path d="M574.5 47h0"></path><rect x="444" y="36" width="130.5" height="22" rx="10" ry="10"></rect><text x="509.25" y="51">funcParamList</text></g><path d="M574.5 47h20"></path></g><path d="M594.5 47h10"></path><g class="terminal "><path d="M604.5 47h0"></path><path d="M675.5 47h0"></path><rect x="604.5" y="36" width="71" height="22"></rect><text x="640" y="51">RPAREN</text></g><path d="M675.5 47h10"></path><path d="M685.5 47h10"></path><g class="non-terminal "><path d="M695.5 47h0"></path><path d="M834.5 47h0"></path><rect x="695.5" y="36" width="139" height="22" rx="10" ry="10"></rect><text x="765" y="51">statementsList</text></g><path d="M834.5 47h10"></path><path d="M844.5 47h10"></path><g class="terminal "><path d="M854.5 47h0"></path><path d="M925.5 47h0"></path><rect x="854.5" y="36" width="71" height="22"></rect><text x="890" y="51">RPAREN</text></g></g><path d="M935.5 47h0"></path></g><path d="M935.5 47h20"></path></g><path d="M 955.5 47 h 20 m 0 -10 v 20"></path></g><defs><style type="text/css"><![CDATA[
svg.railroad-diagram path { stroke-width: 2; stroke: darkgray; fill: rgba(0, 0, 0, 0);}/* All text except comments. */svg.railroad-diagram text { font: bold 12px Hack, "Source Code Pro", monospace; text-anchor: middle; fill: #404040;}/* Comment text */svg.railroad-diagram text.comment { font: italic 10px Hack, "Source Code Pro", monospace; fill: #404040;}/* The terminal boxes. */svg.railroad-diagram g.terminal rect { stroke-width: 2; stroke: #404040; fill: rgba(200, 200, 200, 1);}svg.railroad-diagram g.non-terminal rect { /* The non-terminal boxes. */ stroke-width: 2; stroke: #404040; fill: rgba(255, 255, 255, 1);}/* Multiple choice text, not working atm. */svg.railroad-diagram text.diagram-text { font-size: 12px Hack, "Source Code Pro", monospace; fill: red;}/* Multiple choice text, not working atm. */svg.railroad-diagram path.diagram-text { stroke-width: 1; stroke: red; fill: red; cursor: help;}
 ]]>
</style></defs></svg>