<?xml version="1.0" encoding="UTF-8" standalone="no"?>
<!DOCTYPE svg PUBLIC "-//W3C//DTD SVG 1.1//EN" "http://www.w3.org/Graphics/SVG/1.1/DTD/svg11.dtd">
<svg class="railroad-diagram" width="533" height="132" viewBox="0 0 533 132" id="LITERAL_STRING" xmlns="http://www.w3.org/2000/svg" xmlns:xlink="http://www.w3.org/1999/xlink"><g transform="translate(.5 .5)"><g><path d="M20 37v20m10 -20v20m-10 -10h20"></path></g><g><path d="M40 47h0"></path><path d="M493 47h0"></path><path d="M40 47h20"></path><g><path d="M60 47h0"></path><g><path d="M60 47h10"></path><path d="M463 47h10"></path><g class="terminal "><path d="M70 47h0"></path><path d="M115.5 47h0"></path><rect x="70" y="36" width="45.5" height="22"></rect><text x="92.75" y="51">'"'</text></g><path d="M115.5 47h10"></path><g><path d="M125.5 47h0"></path><path d="M407.5 47h0"></path><path d="M125.5 47a10 10 0 0 0 10 -10v-7a10 10 0 0 1 10 -10"></path><g><path d="M145.5 20h242"></path></g><path d="M387.5 20a10 10 0 0 1 10 10v7a10 10 0 0 0 10 10"></path><path d="M125.5 47h20"></path><g><path d="M145.5 47h0"></path><path d="M387.5 47h0"></path><path d="M145.5 47h10"></path><g><path d="M155.5 47h0"></path><path d="M377.5 47h0"></path><path d="M155.5 47h20"></path><g><path d="M175.5 47h7.25"></path><g><path d="M182.75 47h10"></path><path d="M340.25 47h10"></path><g><path d="M192.75 47h0"></path><path d="M340.25 47h0"></path><g class="comment "><path d="M192.75 47h0"></path><path d="M223.75 47h0"></path><text x="208.25" y="52" class="comment">not</text></g><path d="M223.75 47h10"></path><path d="M233.75 47h10"></path><g class="terminal "><path d="M243.75 47h0"></path><path d="M340.25 47h0"></path><rect x="243.75" y="36" width="96.5" height="22"></rect><text x="292" y="51">["\\\r\n]</text></g></g></g><path d="M350.25 47h7.25"></path></g><path d="M357.5 47h20"></path><path d="M155.5 47a10 10 0 0 1 10 10v18a10 10 0 0 0 10 10"></path><g><path d="M175.5 85h0"></path><g><path d="M175.5 85h10"></path><path d="M347.5 85h10"></path><g class="terminal "><path d="M185.5 85h0"></path><path d="M239.5 85h0"></path><rect x="185.5" y="74" width="54" height="22"></rect><text x="212.5" y="89">'\\'</text></g><path d="M239.5 85h10"></path><path d="M249.5 85h10"></path><g class="terminal "><path d="M259.5 85h0"></path><path d="M347.5 85h0"></path><rect x="259.5" y="74" width="88" height="22"></rect><text x="303.5" y="89">any char</text></g></g><path d="M357.5 85h0"></path></g><path d="M357.5 85a10 10 0 0 0 10 -10v-18a10 10 0 0 1 10 -10"></path></g><path d="M377.5 47h10"></path><path d="M155.5 47a10 10 0 0 0 -10 10v45a10 10 0 0 0 10 10"></path><g><path d="M155.5 112h222"></path></g><path d="M377.5 112a10 10 0 0 0 10 -10v-45a10 10 0 0 0 -10 -10"></path></g><path d="M387.5 47h20"></path></g><path d="M407.5 47h10"></path><g class="terminal "><path d="M417.5 47h0"></path><path d="M463 47h0"></path><rect x="417.5" y="36" width="45.5" height="22"></rect><text x="440.25" y="51">'"'</text></g></g><path d="M473 47h0"></path></g><path d="M473 47h20"></path></g><path d="M 493 47 h 20 m -10 -10 v 20 m 10 -20 v 20"></path></g><defs><style type="text/css"><![CDATA[
svg.railroad-diagram path { stroke-width: 2; stroke: darkgray; fill: rgba(0, 0, 0, 0);}/* All text except comments. */svg.railroad-diagram text { font: bold 12px Hack, "Source Code Pro", monospace; text-anchor: middle; fill: #404040;}/* Comment text */svg.railroad-diagram text.comment { font: italic 10px Hack, "Source Code Pro", monospace; fill: #404040;}/* The terminal boxes. */svg.railroad-diagram g.terminal rect { stroke-width: 2; stroke: #404040; fill: rgba(200, 200, 200, 1);}svg.railroad-diagram g.non-terminal rect { /* The non-terminal boxes. */ stroke-width: 2; stroke: #404040; fill: rgba(255, 255, 255, 1);}/* Multiple choice text, not working atm. */svg.railroad-diagram text.diagram-text { font-size: 12px Hack, "Source Code Pro", monospace; fill: red;}/* Multiple choice text, not working atm. */svg.railroad-diagram path.diagram-text { stroke-width: 1; stroke: red; fill: red; cursor: help;}
 ]]>
</style></defs></svg>