<?xml version="1.0" encoding="UTF-8" standalone="no"?>
<!DOCTYPE svg PUBLIC "-//W3C//DTD SVG 1.1//EN" "http://www.w3.org/Graphics/SVG/1.1/DTD/svg11.dtd">
<svg class="railroad-diagram" width="546" height="116" viewBox="0 0 546 116" id="LITERAL_REAL" xmlns="http://www.w3.org/2000/svg" xmlns:xlink="http://www.w3.org/1999/xlink"><g transform="translate(.5 .5)"><g><path d="M20 37v20m10 -20v20m-10 -10h20"></path></g><g><path d="M40 47h0"></path><path d="M506 47h0"></path><path d="M40 47h20"></path><g><path d="M60 47h0"></path><g><path d="M60 47h10"></path><path d="M476 47h10"></path><g><path d="M70 47h0"></path><path d="M215.5 47h0"></path><path d="M70 47a10 10 0 0 0 10 -10v-7a10 10 0 0 1 10 -10"></path><g><path d="M90 20h105.5"></path></g><path d="M195.5 20a10 10 0 0 1 10 10v7a10 10 0 0 0 10 10"></path><path d="M70 47h20"></path><g><path d="M90 47h0"></path><path d="M195.5 47h0"></path><path d="M90 47h20"></path><g><path d="M110 47h0"></path><g><path d="M110 47h10"></path><path d="M165.5 47h10"></path><g class="terminal "><path d="M120 47h0"></path><path d="M165.5 47h0"></path><rect x="120" y="36" width="45.5" height="22"></rect><text x="142.75" y="51">'+'</text></g></g><path d="M175.5 47h0"></path></g><path d="M175.5 47h20"></path><path d="M90 47a10 10 0 0 1 10 10v18a10 10 0 0 0 10 10"></path><g><path d="M110 85h0"></path><g><path d="M110 85h10"></path><path d="M165.5 85h10"></path><g class="terminal "><path d="M120 85h0"></path><path d="M165.5 85h0"></path><rect x="120" y="74" width="45.5" height="22"></rect><text x="142.75" y="89">'-'</text></g></g><path d="M175.5 85h0"></path></g><path d="M175.5 85a10 10 0 0 0 10 -10v-18a10 10 0 0 1 10 -10"></path></g><path d="M195.5 47h20"></path></g><path d="M215.5 47h10"></path><g><path d="M225.5 47h0"></path><path d="M308 47h0"></path><path d="M225.5 47h10"></path><g class="terminal "><path d="M235.5 47h0"></path><path d="M298 47h0"></path><rect x="235.5" y="36" width="62.5" height="22"></rect><text x="266.75" y="51">DIGIT</text></g><path d="M298 47h10"></path><path d="M235.5 47a10 10 0 0 0 -10 10v7a10 10 0 0 0 10 10"></path><g><path d="M235.5 74h62.5"></path></g><path d="M298 74a10 10 0 0 0 10 -10v-7a10 10 0 0 0 -10 -10"></path></g><path d="M308 47h10"></path><path d="M318 47h10"></path><g class="terminal "><path d="M328 47h0"></path><path d="M373.5 47h0"></path><rect x="328" y="36" width="45.5" height="22"></rect><text x="350.75" y="51">'.'</text></g><path d="M373.5 47h10"></path><path d="M383.5 47h10"></path><g><path d="M393.5 47h0"></path><path d="M476 47h0"></path><path d="M393.5 47h10"></path><g class="terminal "><path d="M403.5 47h0"></path><path d="M466 47h0"></path><rect x="403.5" y="36" width="62.5" height="22"></rect><text x="434.75" y="51">DIGIT</text></g><path d="M466 47h10"></path><path d="M403.5 47a10 10 0 0 0 -10 10v7a10 10 0 0 0 10 10"></path><g><path d="M403.5 74h62.5"></path></g><path d="M466 74a10 10 0 0 0 10 -10v-7a10 10 0 0 0 -10 -10"></path></g></g><path d="M486 47h0"></path></g><path d="M486 47h20"></path></g><path d="M 506 47 h 20 m -10 -10 v 20 m 10 -20 v 20"></path></g><defs><style type="text/css"><![CDATA[
svg.railroad-diagram path { stroke-width: 2; stroke: darkgray; fill: rgba(0, 0, 0, 0);}/* All text except comments. */svg.railroad-diagram text { font: bold 12px Hack, "Source Code Pro", monospace; text-anchor: middle; fill: #404040;}/* Comment text */svg.railroad-diagram text.comment { font: italic 10px Hack, "Source Code Pro", monospace; fill: #404040;}/* The terminal boxes. */svg.railroad-diagram g.terminal rect { stroke-width: 2; stroke: #404040; fill: rgba(200, 200, 200, 1);}svg.railroad-diagram g.non-terminal rect { /* The non-terminal boxes. */ stroke-width: 2; stroke: #404040; fill: rgba(255, 255, 255, 1);}/* Multiple choice text, not working atm. */svg.railroad-diagram text.diagram-text { font-size: 12px Hack, "Source Code Pro", monospace; fill: red;}/* Multiple choice text, not working atm. */svg.railroad-diagram path.diagram-text { stroke-width: 1; stroke: red; fill: red; cursor: help;}
 ]]>
</style></defs></svg>