<?xml version="1.0" encoding="UTF-8" standalone="no"?>
<!DOCTYPE svg PUBLIC "-//W3C//DTD SVG 1.1//EN" "http://www.w3.org/Graphics/SVG/1.1/DTD/svg11.dtd">
<svg class="railroad-diagram" width="838.5" height="62" viewBox="0 0 838.5 62" id="statementWhile" xmlns="http://www.w3.org/2000/svg" xmlns:xlink="http://www.w3.org/1999/xlink"><g transform="translate(.5 .5)"><g><path d="M20 21v20m0 -10h20"></path></g><g><path d="M40 31h0"></path><path d="M798.5 31h0"></path><path d="M40 31h20"></path><g><path d="M60 31h0"></path><g><path d="M60 31h10"></path><path d="M768.5 31h10"></path><g class="terminal "><path d="M70 31h0"></path><path d="M141 31h0"></path><rect x="70" y="20" width="71" height="22"></rect><text x="105.5" y="35">LPAREN</text></g><path d="M141 31h10"></path><path d="M151 31h10"></path><g class="terminal "><path d="M161 31h0"></path><path d="M291.5 31h0"></path><rect x="161" y="20" width="130.5" height="22"></rect><text x="226.25" y="35">KEYWORD_WHILE</text></g><path d="M291.5 31h10"></path><path d="M301.5 31h10"></path><g class="non-terminal "><path d="M311.5 31h0"></path><path d="M518.5 31h0"></path><rect x="311.5" y="20" width="207" height="22" rx="10" ry="10"></rect><text x="415" y="35">expressionFunctionCall</text></g><path d="M518.5 31h10"></path><path d="M528.5 31h10"></path><g class="non-terminal "><path d="M538.5 31h0"></path><path d="M677.5 31h0"></path><rect x="538.5" y="20" width="139" height="22" rx="10" ry="10"></rect><text x="608" y="35">statementsList</text></g><path d="M677.5 31h10"></path><path d="M687.5 31h10"></path><g class="terminal "><path d="M697.5 31h0"></path><path d="M768.5 31h0"></path><rect x="697.5" y="20" width="71" height="22"></rect><text x="733" y="35">RPAREN</text></g></g><path d="M778.5 31h0"></path></g><path d="M778.5 31h20"></path></g><path d="M 798.5 31 h 20 m 0 -10 v 20"></path></g><defs><style type="text/css"><![CDATA[
svg.railroad-diagram path { stroke-width: 2; stroke: darkgray; fill: rgba(0, 0, 0, 0);}/* All text except comments. */svg.railroad-diagram text { font: bold 12px Hack, "Source Code Pro", monospace; text-anchor: middle; fill: #404040;}/* Comment text */svg.railroad-diagram text.comment { font: italic 10px Hack, "Source Code Pro", monospace; fill: #404040;}/* The terminal boxes. */svg.railroad-diagram g.terminal rect { stroke-width: 2; stroke: #404040; fill: rgba(200, 200, 200, 1);}svg.railroad-diagram g.non-terminal rect { /* The non-terminal boxes. */ stroke-width: 2; stroke: #404040; fill: rgba(255, 255, 255, 1);}/* Multiple choice text, not working atm. */svg.railroad-diagram text.diagram-text { font-size: 12px Hack, "Source Code Pro", monospace; fill: red;}/* Multiple choice text, not working atm. */svg.railroad-diagram path.diagram-text { stroke-width: 1; stroke: red; fill: red; cursor: help;}
 ]]>
</style></defs></svg>