<?xml version="1.0" encoding="UTF-8" standalone="no"?>
<!DOCTYPE svg PUBLIC "-//W3C//DTD SVG 1.1//EN" "http://www.w3.org/Graphics/SVG/1.1/DTD/svg11.dtd">
<svg class="railroad-diagram" width="262" height="176" viewBox="0 0 262 176" id="TYPE" xmlns="http://www.w3.org/2000/svg" xmlns:xlink="http://www.w3.org/1999/xlink"><g transform="translate(.5 .5)"><g><path d="M20 21v20m10 -20v20m-10 -10h20"></path></g><g><path d="M40 31h0"></path><path d="M222 31h0"></path><path d="M40 31h20"></path><g><path d="M60 31h0"></path><g><path d="M60 31h10"></path><path d="M192 31h10"></path><g class="terminal "><path d="M70 31h0"></path><path d="M192 31h0"></path><rect x="70" y="20" width="122" height="22"></rect><text x="131" y="35">TYPE_INTEGER</text></g></g><path d="M202 31h0"></path></g><path d="M202 31h20"></path><path d="M40 31a10 10 0 0 1 10 10v18a10 10 0 0 0 10 10"></path><g><path d="M60 69h12.75"></path><g><path d="M72.75 69h10"></path><path d="M179.25 69h10"></path><g class="terminal "><path d="M82.75 69h0"></path><path d="M179.25 69h0"></path><rect x="82.75" y="58" width="96.5" height="22"></rect><text x="131" y="73">TYPE_REAL</text></g></g><path d="M189.25 69h12.75"></path></g><path d="M202 69a10 10 0 0 0 10 -10v-18a10 10 0 0 1 10 -10"></path><path d="M40 31a10 10 0 0 1 10 10v56a10 10 0 0 0 10 10"></path><g><path d="M60 107h4.25"></path><g><path d="M64.25 107h10"></path><path d="M187.75 107h10"></path><g class="terminal "><path d="M74.25 107h0"></path><path d="M187.75 107h0"></path><rect x="74.25" y="96" width="113.5" height="22"></rect><text x="131" y="111">TYPE_STRING</text></g></g><path d="M197.75 107h4.25"></path></g><path d="M202 107a10 10 0 0 0 10 -10v-56a10 10 0 0 1 10 -10"></path><path d="M40 31a10 10 0 0 1 10 10v94a10 10 0 0 0 10 10"></path><g><path d="M60 145h12.75"></path><g><path d="M72.75 145h10"></path><path d="M179.25 145h10"></path><g class="terminal "><path d="M82.75 145h0"></path><path d="M179.25 145h0"></path><rect x="82.75" y="134" width="96.5" height="22"></rect><text x="131" y="149">TYPE_BOOL</text></g></g><path d="M189.25 145h12.75"></path></g><path d="M202 145a10 10 0 0 0 10 -10v-94a10 10 0 0 1 10 -10"></path></g><path d="M 222 31 h 20 m -10 -10 v 20 m 10 -20 v 20"></path></g><defs><style type="text/css"><![CDATA[
svg.railroad-diagram path { stroke-width: 2; stroke: darkgray; fill: rgba(0, 0, 0, 0);}/* All text except comments. */svg.railroad-diagram text { font: bold 12px Hack, "Source Code Pro", monospace; text-anchor: middle; fill: #404040;}/* Comment text */svg.railroad-diagram text.comment { font: italic 10px Hack, "Source Code Pro", monospace; fill: #404040;}/* The terminal boxes. */svg.railroad-diagram g.terminal rect { stroke-width: 2; stroke: #404040; fill: rgba(200, 200, 200, 1);}svg.railroad-diagram g.non-terminal rect { /* The non-terminal boxes. */ stroke-width: 2; stroke: #404040; fill: rgba(255, 255, 255, 1);}/* Multiple choice text, not working atm. */svg.railroad-diagram text.diagram-text { font-size: 12px Hack, "Source Code Pro", monospace; fill: red;}/* Multiple choice text, not working atm. */svg.railroad-diagram path.diagram-text { stroke-width: 1; stroke: red; fill: red; cursor: help;}
 ]]>
</style></defs></svg>