<svg xmlns="http://www.w3.org/2000/svg" xmlns:xlink="http://www.w3.org/1999/xlink" contentStyleType="text/css" data-diagram-type="STATE" height="786px" preserveAspectRatio="none" style="width:1676px;height:786px;background:#FFFFFF;" version="1.1" viewBox="0 0 1676 786" width="1676px" zoomAndPan="magnify"><defs/><g><g id="S0"><rect fill="#FFFAFA" height="50.2656" rx="12.5" ry="12.5" style="stroke:#000000;stroke-width:0.5;" width="107.0703" x="978" y="87"/><line style="stroke:#000000;stroke-width:0.5;" x1="978" x2="1085.0703" y1="113.2969" y2="113.2969"/><text fill="#000000" font-family="sans-serif" font-size="14" lengthAdjust="spacing" textLength="17.7939" x="1022.6382" y="104.9951">S0</text><text fill="#000000" font-family="sans-serif" font-size="12" lengthAdjust="spacing" textLength="87.0703" x="983" y="129.4355">start / skip WS</text></g><g id="S_ID"><rect fill="#FFFAFA" height="50.2656" rx="12.5" ry="12.5" style="stroke:#000000;stroke-width:0.5;" width="241.0742" x="7" y="217.63"/><line style="stroke:#000000;stroke-width:0.5;" x1="7" x2="248.0742" y1="243.9269" y2="243.9269"/><text fill="#000000" font-family="sans-serif" font-size="14" lengthAdjust="spacing" textLength="30.7959" x="112.1392" y="235.6251">S_ID</text><text fill="#000000" font-family="sans-serif" font-size="12" lengthAdjust="spacing" textLength="221.0742" x="12" y="260.0655">ID (first char in [A-Za-z_+\-*/^&lt;&gt;=])</text></g><g id="S_NUM_SIGN"><rect fill="#FFFAFA" height="50.2656" rx="12.5" ry="12.5" style="stroke:#000000;stroke-width:0.5;" width="161.832" x="716.62" y="217.63"/><line style="stroke:#000000;stroke-width:0.5;" x1="716.62" x2="878.452" y1="243.9269" y2="243.9269"/><text fill="#000000" font-family="sans-serif" font-size="14" lengthAdjust="spacing" textLength="90.0225" x="752.5248" y="235.6251">S_NUM_SIGN</text><text fill="#000000" font-family="sans-serif" font-size="12" lengthAdjust="spacing" textLength="141.832" x="721.62" y="260.0655">sign seen, next is DIGIT</text></g><g id="S_NUM_INT"><rect fill="#FFFAFA" height="50.2656" rx="12.5" ry="12.5" style="stroke:#000000;stroke-width:0.5;" width="98.8389" x="672.12" y="348.27"/><line style="stroke:#000000;stroke-width:0.5;" x1="672.12" x2="770.9589" y1="374.5669" y2="374.5669"/><text fill="#000000" font-family="sans-serif" font-size="14" lengthAdjust="spacing" textLength="78.8389" x="682.12" y="366.2651">S_NUM_INT</text><text fill="#000000" font-family="sans-serif" font-size="12" lengthAdjust="spacing" textLength="71.3848" x="677.12" y="390.7055">integer part</text></g><g id="S_NUM_DOT"><rect fill="#FFFAFA" height="50.2656" rx="12.5" ry="12.5" style="stroke:#000000;stroke-width:0.5;" width="108.752" x="610.16" y="475.53"/><line style="stroke:#000000;stroke-width:0.5;" x1="610.16" x2="718.912" y1="501.8269" y2="501.8269"/><text fill="#000000" font-family="sans-serif" font-size="14" lengthAdjust="spacing" textLength="86.0371" x="621.5174" y="493.5251">S_NUM_DOT</text><text fill="#000000" font-family="sans-serif" font-size="12" lengthAdjust="spacing" textLength="88.752" x="615.16" y="517.9655">dot after digits</text></g><g id="S_NUM_REAL"><rect fill="#FFFAFA" height="50.2656" rx="12.5" ry="12.5" style="stroke:#000000;stroke-width:0.5;" width="113.457" x="609.81" y="602.8"/><line style="stroke:#000000;stroke-width:0.5;" x1="609.81" x2="723.267" y1="629.0969" y2="629.0969"/><text fill="#000000" font-family="sans-serif" font-size="14" lengthAdjust="spacing" textLength="91.6357" x="620.7206" y="620.7951">S_NUM_REAL</text><text fill="#000000" font-family="sans-serif" font-size="12" lengthAdjust="spacing" textLength="93.457" x="614.81" y="645.2355">fractional digits</text></g><g id="S_STR"><rect fill="#FFFAFA" height="50.2656" rx="12.5" ry="12.5" style="stroke:#000000;stroke-width:0.5;" width="93.7871" x="984.64" y="217.63"/><line style="stroke:#000000;stroke-width:0.5;" x1="984.64" x2="1078.4271" y1="243.9269" y2="243.9269"/><text fill="#000000" font-family="sans-serif" font-size="14" lengthAdjust="spacing" textLength="43.0527" x="1010.0072" y="235.6251">S_STR</text><text fill="#000000" font-family="sans-serif" font-size="12" lengthAdjust="spacing" textLength="73.7871" x="989.64" y="260.0655">inside string</text></g><g id="S_STR_ESC"><rect fill="#FFFAFA" height="50.2656" rx="12.5" ry="12.5" style="stroke:#000000;stroke-width:0.5;" width="111.7285" x="1031.67" y="348.27"/><line style="stroke:#000000;stroke-width:0.5;" x1="1031.67" x2="1143.3985" y1="374.5669" y2="374.5669"/><text fill="#000000" font-family="sans-serif" font-size="14" lengthAdjust="spacing" textLength="77.5605" x="1048.754" y="366.2651">S_STR_ESC</text><text fill="#000000" font-family="sans-serif" font-size="12" lengthAdjust="spacing" textLength="91.7285" x="1036.67" y="390.7055">after backslash</text></g><g id="LPAREN_ACC"><rect fill="#FFFAFA" height="50.2656" rx="12.5" ry="12.5" style="stroke:#000000;stroke-width:0.5;" width="111.0957" x="1409.99" y="217.63"/><line style="stroke:#000000;stroke-width:0.5;" x1="1409.99" x2="1521.0857" y1="243.9269" y2="243.9269"/><text fill="#000000" font-family="sans-serif" font-size="14" lengthAdjust="spacing" textLength="90.9932" x="1420.0413" y="235.6251">LPAREN_ACC</text><text fill="#000000" font-family="sans-serif" font-size="12" lengthAdjust="spacing" textLength="91.0957" x="1414.99" y="260.0655">accept LPAREN</text></g><g id="RPAREN_ACC"><rect fill="#FFFAFA" height="50.2656" rx="12.5" ry="12.5" style="stroke:#000000;stroke-width:0.5;" width="112.9209" x="1556.08" y="217.63"/><line style="stroke:#000000;stroke-width:0.5;" x1="1556.08" x2="1669.0009" y1="243.9269" y2="243.9269"/><text fill="#000000" font-family="sans-serif" font-size="14" lengthAdjust="spacing" textLength="92.9209" x="1566.08" y="235.6251">RPAREN_ACC</text><text fill="#000000" font-family="sans-serif" font-size="12" lengthAdjust="spacing" textLength="92.748" x="1561.08" y="260.0655">accept RPAREN</text></g><g id="ID_ACC"><rect fill="#FFFAFA" height="50.2656" rx="12.5" ry="12.5" style="stroke:#000000;stroke-width:0.5;" width="192.5586" x="295.26" y="348.27"/><line style="stroke:#000000;stroke-width:0.5;" x1="295.26" x2="487.8186" y1="374.5669" y2="374.5669"/><text fill="#000000" font-family="sans-serif" font-size="14" lengthAdjust="spacing" textLength="51.0371" x="366.0207" y="366.2651">ID_ACC</text><text fill="#000000" font-family="sans-serif" font-size="12" lengthAdjust="spacing" textLength="172.5586" x="300.26" y="390.7055">accept ID/keyword/type/bool</text></g><g id="INT_ACC"><rect fill="#FFFAFA" height="50.2656" rx="12.5" ry="12.5" style="stroke:#000000;stroke-width:0.5;" width="171.084" x="754" y="475.53"/><line style="stroke:#000000;stroke-width:0.5;" x1="754" x2="925.084" y1="501.8269" y2="501.8269"/><text fill="#000000" font-family="sans-serif" font-size="14" lengthAdjust="spacing" textLength="59.2813" x="809.9014" y="493.5251">INT_ACC</text><text fill="#000000" font-family="sans-serif" font-size="12" lengthAdjust="spacing" textLength="151.084" x="759" y="517.9655">accept LITERAL_INTEGER</text></g><g id="REAL_ACC"><rect fill="#FFFAFA" height="50.2656" rx="12.5" ry="12.5" style="stroke:#000000;stroke-width:0.5;" width="149.252" x="510.91" y="730.06"/><line style="stroke:#000000;stroke-width:0.5;" x1="510.91" x2="660.162" y1="756.3569" y2="756.3569"/><text fill="#000000" font-family="sans-serif" font-size="14" lengthAdjust="spacing" textLength="72.0781" x="549.4969" y="748.0551">REAL_ACC</text><text fill="#000000" font-family="sans-serif" font-size="12" lengthAdjust="spacing" textLength="129.252" x="515.91" y="772.4955">accept LITERAL_REAL</text></g><g id="STR_ACC"><rect fill="#FFFAFA" height="50.2656" rx="12.5" ry="12.5" style="stroke:#000000;stroke-width:0.5;" width="163.5371" x="1178.77" y="348.27"/><line style="stroke:#000000;stroke-width:0.5;" x1="1178.77" x2="1342.3071" y1="374.5669" y2="374.5669"/><text fill="#000000" font-family="sans-serif" font-size="14" lengthAdjust="spacing" textLength="63.2939" x="1228.8916" y="366.2651">STR_ACC</text><text fill="#000000" font-family="sans-serif" font-size="12" lengthAdjust="spacing" textLength="143.5371" x="1183.77" y="390.7055">accept LITERAL_STRING</text></g><g id="ERROR"><rect fill="#FFFAFA" height="50.2656" rx="12.5" ry="12.5" style="stroke:#000000;stroke-width:0.5;" width="189.0957" x="883.99" y="602.8"/><line style="stroke:#000000;stroke-width:0.5;" x1="883.99" x2="1073.0857" y1="629.0969" y2="629.0969"/><text fill="#000000" font-family="sans-serif" font-size="14" lengthAdjust="spacing" textLength="49.0479" x="954.0139" y="620.7951">ERROR</text><text fill="#000000" font-family="sans-serif" font-size="12" lengthAdjust="spacing" textLength="169.0957" x="888.99" y="645.2355">report with line/col and stop</text></g><ellipse cx="1031.54" cy="16" fill="#222222" rx="10" ry="10" style="stroke:#222222;stroke-width:1;"/><!--link *start* to S0--><g class="link" data-entity-1=".start." data-entity-2="S0" data-source-line="6" data-uid="lnk3" id="link_.start._S0"><path d="M1031.54,26.37 C1031.54,40.32 1031.54,61.03 1031.54,80.75" fill="none" id="*start*-to-S0" style="stroke:#000000;stroke-width:1;"/><polygon fill="#000000" points="1031.54,86.75,1035.54,77.75,1031.54,81.75,1027.54,77.75,1031.54,86.75" style="stroke:#000000;stroke-width:1;"/></g><!--link S0 to LPAREN_ACC--><g class="link" data-entity-1="S0" data-entity-2="LPAREN_ACC" data-source-line="9" data-uid="lnk4" id="link_S0_LPAREN_ACC"><path d="M1085.51,114.75 C1179.78,118.52 1369.57,130.56 1423.54,167.27 C1440.85,179.04 1449.7083,194.8377 1456.0783,211.6877" fill="none" id="S0-to-LPAREN_ACC" style="stroke:#000000;stroke-width:1;"/><polygon fill="#000000" points="1458.2,217.3,1458.759,207.467,1456.4319,212.623,1451.2759,210.296,1458.2,217.3" style="stroke:#000000;stroke-width:1;"/><text fill="#000000" font-family="sans-serif" font-size="13" lengthAdjust="spacing" textLength="12.2192" x="1441.54" y="180.3369">'('</text></g><!--link LPAREN_ACC to S0--><g class="link" data-entity-1="LPAREN_ACC" data-entity-2="S0" data-source-line="48" data-uid="lnk27" id="link_LPAREN_ACC_S0"><path d="M1444.67,217.26 C1428.85,200.38 1405.61,178.97 1380.54,167.27 C1283.45,121.94 1162.2895,113.3495 1091.3495,112.4095" fill="none" id="LPAREN_ACC-to-S0" style="stroke:#000000;stroke-width:1;"/><polygon fill="#000000" points="1085.35,112.33,1094.2962,116.4489,1090.3496,112.3962,1094.4022,108.4496,1085.35,112.33" style="stroke:#000000;stroke-width:1;"/></g><!--link S0 to RPAREN_ACC--><g class="link" data-entity-1="S0" data-entity-2="RPAREN_ACC" data-source-line="10" data-uid="lnk5" id="link_S0_RPAREN_ACC"><path d="M1085.26,113.55 C1201.64,115.28 1472.95,123.98 1552.54,167.27 C1573.25,178.54 1586.3507,195.0825 1596.6607,212.1725" fill="none" id="S0-to-RPAREN_ACC" style="stroke:#000000;stroke-width:1;"/><polygon fill="#000000" points="1599.76,217.31,1598.536,207.5375,1597.1772,213.0287,1591.686,211.67,1599.76,217.31" style="stroke:#000000;stroke-width:1;"/><text fill="#000000" font-family="sans-serif" font-size="13" lengthAdjust="spacing" textLength="12.2192" x="1574.54" y="180.3369">')'</text></g><!--link RPAREN_ACC to S0--><g class="link" data-entity-1="RPAREN_ACC" data-entity-2="S0" data-source-line="50" data-uid="lnk28" id="link_RPAREN_ACC_S0"><path d="M1572.37,217.16 C1543.01,200.35 1501.65,179.07 1462.54,167.27 C1330.95,127.58 1174.2765,117.1642 1091.4765,114.3442" fill="none" id="RPAREN_ACC-to-S0" style="stroke:#000000;stroke-width:1;"/><polygon fill="#000000" points="1085.48,114.14,1094.3386,118.444,1090.4771,114.3102,1094.6109,110.4487,1085.48,114.14" style="stroke:#000000;stroke-width:1;"/></g><!--link S0 to S_STR--><g class="link" data-entity-1="S0" data-entity-2="S_STR" data-source-line="11" data-uid="lnk6" id="link_S0_S_STR"><path d="M1031.54,137.63 C1031.54,160.52 1031.54,188.5 1031.54,211.36" fill="none" id="S0-to-S_STR" style="stroke:#000000;stroke-width:1;"/><polygon fill="#000000" points="1031.54,217.36,1035.54,208.36,1031.54,212.36,1027.54,208.36,1031.54,217.36" style="stroke:#000000;stroke-width:1;"/><text fill="#000000" font-family="sans-serif" font-size="13" lengthAdjust="spacing" textLength="13.127" x="1032.54" y="180.3369">'"'</text></g><!--link S0 to S_ID--><g class="link" data-entity-1="S0" data-entity-2="S_ID" data-source-line="12" data-uid="lnk7" id="link_S0_S_ID"><path d="M977.59,114.73 C830.66,119.44 425.73,135.05 296.54,167.27 C252.36,178.28 210.5215,197.2477 177.2815,214.4077" fill="none" id="S0-to-S_ID" style="stroke:#000000;stroke-width:1;"/><polygon fill="#000000" points="171.95,217.16,181.7821,216.5858,176.3929,214.8664,178.1123,209.4772,171.95,217.16" style="stroke:#000000;stroke-width:1;"/><text fill="#000000" font-family="sans-serif" font-size="13" lengthAdjust="spacing" textLength="161.7065" x="297.54" y="180.3369">[A-Za-z_ + - * / ^ &lt; &gt; =]</text></g><!--link S0 to S_NUM_SIGN--><g class="link" data-entity-1="S0" data-entity-2="S_NUM_SIGN" data-source-line="13" data-uid="lnk8" id="link_S0_S_NUM_SIGN"><path d="M977.67,115.82 C905.46,120.68 783.11,133.76 755.54,167.27 C742.99,182.52 750.7191,197.6502 764.9791,212.8802" fill="none" id="S0-to-S_NUM_SIGN" style="stroke:#000000;stroke-width:1;"/><polygon fill="#000000" points="769.08,217.26,765.8486,207.9564,765.6626,213.6101,760.0088,213.4242,769.08,217.26" style="stroke:#000000;stroke-width:1;"/><text fill="#000000" font-family="sans-serif" font-size="13" lengthAdjust="spacing" textLength="148.3511" x="756.54" y="180.3369">'+' or '-' (peek DIGIT ?)</text></g><!--link S0 to S_NUM_INT--><g class="link" data-entity-1="S0" data-entity-2="S_NUM_INT" data-source-line="14" data-uid="lnk9" id="link_S0_S_NUM_INT"><path d="M977.6,118.82 C882.95,130.17 693.96,159.35 662.54,214.27 C637.14,258.65 670.0067,311.335 695.9067,343.355" fill="none" id="S0-to-S_NUM_INT" style="stroke:#000000;stroke-width:1;"/><polygon fill="#000000" points="699.68,348.02,697.13,338.507,696.5355,344.1325,690.91,343.5381,699.68,348.02" style="stroke:#000000;stroke-width:1;"/><text fill="#000000" font-family="sans-serif" font-size="13" lengthAdjust="spacing" textLength="35.6929" x="663.54" y="247.3369">DIGIT</text></g><!--link S0 to S0--><g class="link" data-entity-1="S0" data-entity-2="S0" data-source-line="15" data-uid="lnk10" id="link_S0_S0"><path d="M1085.57,101.71 C1104.62,101.54 1120.07,105.02 1120.07,112.13 C1120.07,119.25 1110.6198,122.7835 1091.5698,122.6135" fill="none" id="S0-to-S0" style="stroke:#000000;stroke-width:1;"/><polygon fill="#000000" points="1085.57,122.56,1094.5339,126.6402,1090.5698,122.6046,1094.6053,118.6405,1085.57,122.56" style="stroke:#000000;stroke-width:1;"/><text fill="#000000" font-family="sans-serif" font-size="13" lengthAdjust="spacing" textLength="21.106" x="1126.07" y="116.6969">WS</text></g><!--link S0 to ERROR--><g class="link" data-entity-1="S0" data-entity-2="ERROR" data-source-line="16" data-uid="lnk11" id="link_S0_ERROR"><path d="M1085.18,119.49 C1128.52,126.39 1189.93,140.27 1237.54,167.27 C1338.62,224.6 1416.81,297.42 1359.54,398.53 C1297.11,508.75 1163.6368,569.6468 1071.9068,600.5068" fill="none" id="S0-to-ERROR" style="stroke:#000000;stroke-width:1;"/><polygon fill="#000000" points="1066.22,602.42,1076.0257,603.3415,1070.959,600.8257,1073.4748,595.759,1066.22,602.42" style="stroke:#000000;stroke-width:1;"/><text fill="#000000" font-family="sans-serif" font-size="13" lengthAdjust="spacing" textLength="90.2637" x="1379.54" y="377.9669">other / invalid</text></g><!--link S_ID to S_ID--><g class="link" data-entity-1="S_ID" data-entity-2="S_ID" data-source-line="19" data-uid="lnk12" id="link_S_ID_S_ID"><path d="M248.51,231.07 C268.94,232.68 283.07,236.58 283.07,242.77 C283.07,248.95 274.9212,252.3757 254.4912,253.9957" fill="none" id="S_ID-to-S_ID" style="stroke:#000000;stroke-width:1;"/><polygon fill="#000000" points="248.51,254.47,257.798,257.7461,253.4944,254.0748,257.1656,249.7711,248.51,254.47" style="stroke:#000000;stroke-width:1;"/><text fill="#000000" font-family="sans-serif" font-size="13" lengthAdjust="spacing" textLength="154.2607" x="289.07" y="247.3369">[A-Za-z0-9_+\-*/^&lt;&gt;=]</text></g><!--link S_ID to ID_ACC--><g class="link" data-entity-1="S_ID" data-entity-2="ID_ACC" data-source-line="20" data-uid="lnk13" id="link_S_ID_ID_ACC"><path d="M177.81,268.27 C224.64,291.08 288.6964,322.2916 335.6064,345.1516" fill="none" id="S_ID-to-ID_ACC" style="stroke:#000000;stroke-width:1;"/><polygon fill="#000000" points="341,347.78,334.6618,340.2416,336.5053,345.5897,331.1573,347.4331,341,347.78" style="stroke:#000000;stroke-width:1;"/><text fill="#000000" font-family="sans-serif" font-size="13" lengthAdjust="spacing" textLength="86.7344" x="276.54" y="314.3369">other (unget)</text></g><!--link S_NUM_SIGN to S_NUM_INT--><g class="link" data-entity-1="S_NUM_SIGN" data-entity-2="S_NUM_INT" data-source-line="23" data-uid="lnk14" id="link_S_NUM_SIGN_S_NUM_INT"><path d="M783.06,268.27 C769.54,291.15 752.511,319.9636 739.011,342.8236" fill="none" id="S_NUM_SIGN-to-S_NUM_INT" style="stroke:#000000;stroke-width:1;"/><polygon fill="#000000" points="735.96,347.99,743.9808,342.2745,738.5025,343.6847,737.0923,338.2064,735.96,347.99" style="stroke:#000000;stroke-width:1;"/><text fill="#000000" font-family="sans-serif" font-size="13" lengthAdjust="spacing" textLength="35.6929" x="763.54" y="314.3369">DIGIT</text></g><!--link S_NUM_INT to S_NUM_INT--><g class="link" data-entity-1="S_NUM_INT" data-entity-2="S_NUM_INT" data-source-line="26" data-uid="lnk15" id="link_S_NUM_INT_S_NUM_INT"><path d="M771.38,361.5 C790.31,361.05 805.96,365.01 805.96,373.4 C805.96,381.79 796.3083,385.8926 777.3783,385.4426" fill="none" id="S_NUM_INT-to-S_NUM_INT" style="stroke:#000000;stroke-width:1;"/><polygon fill="#000000" points="771.38,385.3,780.2824,389.5128,776.3786,385.4188,780.4725,381.515,771.38,385.3" style="stroke:#000000;stroke-width:1;"/><text fill="#000000" font-family="sans-serif" font-size="13" lengthAdjust="spacing" textLength="35.6929" x="811.96" y="377.9669">DIGIT</text></g><!--link S_NUM_INT to S_NUM_DOT--><g class="link" data-entity-1="S_NUM_INT" data-entity-2="S_NUM_DOT" data-source-line="27" data-uid="lnk16" id="link_S_NUM_INT_S_NUM_DOT"><path d="M710.41,398.85 C700.37,420.92 688.1554,447.759 678.1154,469.819" fill="none" id="S_NUM_INT-to-S_NUM_DOT" style="stroke:#000000;stroke-width:1;"/><polygon fill="#000000" points="675.63,475.28,682.9988,468.7454,677.7012,470.7292,675.7175,465.4315,675.63,475.28" style="stroke:#000000;stroke-width:1;"/><text fill="#000000" font-family="sans-serif" font-size="13" lengthAdjust="spacing" textLength="11.2798" x="697.54" y="441.5969">'.'</text></g><!--link S_NUM_INT to INT_ACC--><g class="link" data-entity-1="S_NUM_INT" data-entity-2="INT_ACC" data-source-line="28" data-uid="lnk17" id="link_S_NUM_INT_INT_ACC"><path d="M744.57,398.85 C765.36,420.92 791.677,448.8516 812.447,470.9116" fill="none" id="S_NUM_INT-to-INT_ACC" style="stroke:#000000;stroke-width:1;"/><polygon fill="#000000" points="816.56,475.28,813.3028,465.9853,813.1325,471.6396,807.4782,471.4693,816.56,475.28" style="stroke:#000000;stroke-width:1;"/><text fill="#000000" font-family="sans-serif" font-size="13" lengthAdjust="spacing" textLength="86.7344" x="789.54" y="441.5969">other (unget)</text></g><!--link S_NUM_DOT to S_NUM_REAL--><g class="link" data-entity-1="S_NUM_DOT" data-entity-2="S_NUM_REAL" data-source-line="31" data-uid="lnk18" id="link_S_NUM_DOT_S_NUM_REAL"><path d="M664.93,526.12 C665.28,548.19 665.7048,574.4908 666.0548,596.5408" fill="none" id="S_NUM_DOT-to-S_NUM_REAL" style="stroke:#000000;stroke-width:1;"/><polygon fill="#000000" points="666.15,602.54,670.0067,593.4776,666.0706,597.5406,662.0077,593.6046,666.15,602.54" style="stroke:#000000;stroke-width:1;"/><text fill="#000000" font-family="sans-serif" font-size="13" lengthAdjust="spacing" textLength="35.6929" x="667.54" y="568.8669">DIGIT</text></g><!--link S_NUM_DOT to ERROR--><g class="link" data-entity-1="S_NUM_DOT" data-entity-2="ERROR" data-source-line="32" data-uid="lnk19" id="link_S_NUM_DOT_ERROR"><path d="M719.23,523.49 C774.4,545.5 853.8569,577.1973 911.3769,600.1373" fill="none" id="S_NUM_DOT-to-ERROR" style="stroke:#000000;stroke-width:1;"/><polygon fill="#000000" points="916.95,602.36,910.0721,595.3106,912.3057,600.5078,907.1085,602.7414,916.95,602.36" style="stroke:#000000;stroke-width:1;"/><text fill="#000000" font-family="sans-serif" font-size="13" lengthAdjust="spacing" textLength="34.6328" x="841.54" y="568.8669">other</text></g><!--link S_NUM_REAL to S_NUM_REAL--><g class="link" data-entity-1="S_NUM_REAL" data-entity-2="S_NUM_REAL" data-source-line="35" data-uid="lnk20" id="link_S_NUM_REAL_S_NUM_REAL"><path d="M723.42,616 C742.74,615.94 758.27,619.92 758.27,627.93 C758.27,635.95 748.74,639.9386 729.42,639.8786" fill="none" id="S_NUM_REAL-to-S_NUM_REAL" style="stroke:#000000;stroke-width:1;"/><polygon fill="#000000" points="723.42,639.86,732.4075,643.8879,728.42,639.8755,732.4324,635.888,723.42,639.86" style="stroke:#000000;stroke-width:1;"/><text fill="#000000" font-family="sans-serif" font-size="13" lengthAdjust="spacing" textLength="35.6929" x="764.27" y="632.4969">DIGIT</text></g><!--link S_NUM_REAL to REAL_ACC--><g class="link" data-entity-1="S_NUM_REAL" data-entity-2="REAL_ACC" data-source-line="36" data-uid="lnk21" id="link_S_NUM_REAL_REAL_ACC"><path d="M650.73,653.38 C636.45,675.45 618.8283,702.7218 604.5683,724.7718" fill="none" id="S_NUM_REAL-to-REAL_ACC" style="stroke:#000000;stroke-width:1;"/><polygon fill="#000000" points="601.31,729.81,609.5562,724.4249,604.0252,725.6115,602.8386,720.0805,601.31,729.81" style="stroke:#000000;stroke-width:1;"/><text fill="#000000" font-family="sans-serif" font-size="13" lengthAdjust="spacing" textLength="86.7344" x="632.54" y="696.1269">other (unget)</text></g><!--link S_STR to S_STR_ESC--><g class="link" data-entity-1="S_STR" data-entity-2="S_STR_ESC" data-source-line="39" data-uid="lnk22" id="link_S_STR_S_STR_ESC"><path d="M1069.12,268.3 C1079.67,277.28 1089.82,288.44 1095.54,301.27 C1102.07,315.91 1101.4814,328.0509 1097.8114,342.2509" fill="none" id="S_STR-to-S_STR_ESC" style="stroke:#000000;stroke-width:1;"/><polygon fill="#000000" points="1096.31,348.06,1102.4348,340.3472,1097.5611,343.2191,1094.6893,338.3454,1096.31,348.06" style="stroke:#000000;stroke-width:1;"/><text fill="#000000" font-family="sans-serif" font-size="13" lengthAdjust="spacing" textLength="11.5273" x="1101.54" y="314.3369">'\'</text></g><!--link S_STR_ESC to S_STR--><g class="link" data-entity-1="S_STR_ESC" data-entity-2="S_STR" data-source-line="45" data-uid="lnk26" id="link_S_STR_ESC_S_STR"><path d="M1052.23,347.98 C1043.11,339.7 1034.48,329.64 1029.54,318.27 C1022.73,302.6 1022.5553,289.2199 1024.8753,274.1799" fill="none" id="S_STR_ESC-to-S_STR" style="stroke:#000000;stroke-width:1;"/><polygon fill="#000000" points="1025.79,268.25,1020.4647,276.535,1025.0277,273.1916,1028.3712,277.7546,1025.79,268.25" style="stroke:#000000;stroke-width:1;"/><text fill="#000000" font-family="sans-serif" font-size="13" lengthAdjust="spacing" textLength="56.729" x="1030.54" y="314.3369">any char</text></g><!--link S_STR to STR_ACC--><g class="link" data-entity-1="S_STR" data-entity-2="STR_ACC" data-source-line="40" data-uid="lnk23" id="link_S_STR_STR_ACC"><path d="M1075.15,268.27 C1115.77,291.08 1170.779,321.9812 1211.469,344.8412" fill="none" id="S_STR-to-STR_ACC" style="stroke:#000000;stroke-width:1;"/><polygon fill="#000000" points="1216.7,347.78,1210.8127,339.8844,1212.3408,345.331,1206.8943,346.8591,1216.7,347.78" style="stroke:#000000;stroke-width:1;"/><text fill="#000000" font-family="sans-serif" font-size="13" lengthAdjust="spacing" textLength="13.127" x="1161.54" y="314.3369">'"'</text></g><!--link S_STR to S_STR--><g class="link" data-entity-1="S_STR" data-entity-2="S_STR" data-source-line="41" data-uid="lnk24" id="link_S_STR_S_STR"><path d="M1078.66,230.28 C1097.57,229.58 1113.43,233.74 1113.43,242.77 C1113.43,251.8 1103.5658,256.1851 1084.6558,255.4751" fill="none" id="S_STR-to-S_STR" style="stroke:#000000;stroke-width:1;"/><polygon fill="#000000" points="1078.66,255.25,1087.5036,259.5849,1083.6565,255.4376,1087.8037,251.5905,1078.66,255.25" style="stroke:#000000;stroke-width:1;"/><text fill="#000000" font-family="sans-serif" font-size="13" lengthAdjust="spacing" textLength="120.231" x="1119.43" y="232.3369">any char except ["</text><text fill="#000000" font-family="sans-serif" font-size="13" lengthAdjust="spacing" textLength="4.1323" x="1239.661" y="247.4697"> </text><text fill="#000000" font-family="sans-serif" font-size="13" lengthAdjust="spacing" textLength="9.4517" x="1234.3416" y="262.6025">\]</text></g><!--link S_STR to ERROR--><g class="link" data-entity-1="S_STR" data-entity-2="ERROR" data-source-line="42" data-uid="lnk25" id="link_S_STR_ERROR"><path d="M1024.89,268.25 C1022.31,278.41 1019.51,290.35 1017.54,301.27 C997.31,413.05 985.4134,542.4103 980.9334,596.7003" fill="none" id="S_STR-to-ERROR" style="stroke:#000000;stroke-width:1;"/><polygon fill="#000000" points="980.44,602.68,985.1666,594.0394,980.8512,597.6969,977.1937,593.3815,980.44,602.68" style="stroke:#000000;stroke-width:1;"/><text fill="#000000" font-family="sans-serif" font-size="13" lengthAdjust="spacing" textLength="193.6416" x="999.54" y="441.5969">EOL/EOF before closing quote</text></g><!--link ID_ACC to S0--><g class="link" data-entity-1="ID_ACC" data-entity-2="S0" data-source-line="52" data-uid="lnk29" id="link_ID_ACC_S0"><path d="M406.41,348.06 C438.38,296.13 512.2,178.3 530.54,167.27 C604.85,122.57 858.5204,114.7093 971.9004,113.3993" fill="none" id="ID_ACC-to-S0" style="stroke:#000000;stroke-width:1;"/><polygon fill="#000000" points="977.9,113.33,968.8544,109.4342,972.9003,113.3878,968.9468,117.4337,977.9,113.33" style="stroke:#000000;stroke-width:1;"/></g><!--link INT_ACC to S0--><g class="link" data-entity-1="INT_ACC" data-entity-2="S0" data-source-line="54" data-uid="lnk30" id="link_INT_ACC_S0"><path d="M863.01,475.14 C870.61,466.3 878.6,455.93 884.54,445.53 C938.71,350.71 919.61,312.39 967.54,214.27 C980.94,186.82 996.64,162.4799 1010.48,142.5299" fill="none" id="INT_ACC-to-S0" style="stroke:#000000;stroke-width:1;"/><polygon fill="#000000" points="1013.9,137.6,1005.4834,142.7148,1011.05,141.7082,1012.0566,147.2748,1013.9,137.6" style="stroke:#000000;stroke-width:1;"/></g><!--link REAL_ACC to S0--><g class="link" data-entity-1="REAL_ACC" data-entity-2="S0" data-source-line="56" data-uid="lnk31" id="link_REAL_ACC_S0"><path d="M576.36,729.63 C567.87,704.65 556.54,664.65 556.54,628.93 C556.54,241.77 556.54,241.77 556.54,241.77 C556.54,155.37 847.0251,125.6259 971.5251,116.7659" fill="none" id="REAL_ACC-to-S0" style="stroke:#000000;stroke-width:1;"/><polygon fill="#000000" points="977.51,116.34,968.2488,112.989,972.5226,116.6949,968.8166,120.9688,977.51,116.34" style="stroke:#000000;stroke-width:1;"/></g><!--link STR_ACC to S0--><g class="link" data-entity-1="STR_ACC" data-entity-2="S0" data-source-line="58" data-uid="lnk32" id="link_STR_ACC_S0"><path d="M1265.93,347.98 C1271.84,314.62 1277.16,254.39 1249.54,214.27 C1211.92,159.63 1142.7807,135.1801 1091.3607,123.4901" fill="none" id="STR_ACC-to-S0" style="stroke:#000000;stroke-width:1;"/><polygon fill="#000000" points="1085.51,122.16,1093.3993,128.0557,1090.3856,123.2684,1095.1728,120.2547,1085.51,122.16" style="stroke:#000000;stroke-width:1;"/></g><!--SRC=[XLJlRzem4Ftkl-BKBu5sMVfrKzk9bWn5OZ0bJ9FMKEGc9bXaTcQxespQ_xuBpaz6koy4lVVEz-vyPxtbeg2AVWTjg67mcm3SqcIRAVaaqZkPImMHaBiIbYfboaAtEMeG6oabTrte3xa_NuBhta1qIOWzCxg4z-Nnoe07UiiB-1eH14lLzFCez6UhqTqTQfo1K-DX3nysUBIA5c49dNMWO8p8_SZzHjrVAxW05yunqmDSmGrSBrlTxCkdLHHCPcNyXGDesd4T61ICRM4SJ885V1ZsrS5iWU83rn1bDMq1VXZEIqFIR9Z2h5pyf3bFczgjEVmPhBdI1f8DLIXgx5x4xhdtS7LplSJKfVZVaYxTTnrPgmh6LNzixi6Jo9WPjfaxvMgU2T2CYJSWsBC1hkkYMjNfgdkdMO8Bmp9CY7DZI4kyqBKJ_7XUyivRvuZ5x_yhii6fD43N1aKfpxZHf2NRFA4_cXuPgGMzQ-idgABMYYQ6Iq7pVee3_MgEHb7-URqWEynSQ9uoN175HKOisWpxoeyEEn37JfT2ebgEC-Su154gzdRKs7F22WFtPn0hY0N4yR8ZhzlWpwUUF_y8Zsmj5OCabngjm8ydQLZFRUN6jluHDrxdL6z8ovqoKP_GMtQQ78nPZ7Iewl6m8U6948kHy8MGPYqgUJ3sjco_mzVBC_k2UOzIvgGIzGERyQkz1Gi_n2j4mf_u8Qa5VOVj9H-5bGnfw5vGUtr7CKW4imcf-Vv3Mj-MOeN4ntJ7pGPoBfYNo1oRdU84oU8l]--></g></svg>